%TF.GenerationSoftware,KiCad,Pcbnew,7.0.7*%
%TF.CreationDate,2023-09-02T11:06:43+09:00*%
%TF.ProjectId,emmc2sd,656d6d63-3273-4642-9e6b-696361645f70,rev?*%
%TF.SameCoordinates,Original*%
%TF.FileFunction,Copper,L1,Top*%
%TF.FilePolarity,Positive*%
%FSLAX46Y46*%
G04 Gerber Fmt 4.6, Leading zero omitted, Abs format (unit mm)*
G04 Created by KiCad (PCBNEW 7.0.7) date 2023-09-02 11:06:43*
%MOMM*%
%LPD*%
G01*
G04 APERTURE LIST*
%TA.AperFunction,SMDPad,CuDef*%
%ADD10R,2.910000X0.550000*%
%TD*%
%TA.AperFunction,SMDPad,CuDef*%
%ADD11R,0.500000X1.000000*%
%TD*%
%TA.AperFunction,SMDPad,CuDef*%
%ADD12R,0.720000X0.780000*%
%TD*%
%TA.AperFunction,SMDPad,CuDef*%
%ADD13R,1.050000X1.200000*%
%TD*%
%TA.AperFunction,SMDPad,CuDef*%
%ADD14R,1.050000X2.390000*%
%TD*%
%TA.AperFunction,SMDPad,CuDef*%
%ADD15R,1.050000X1.080000*%
%TD*%
%TA.AperFunction,ViaPad*%
%ADD16C,0.600000*%
%TD*%
%TA.AperFunction,Conductor*%
%ADD17C,0.150000*%
%TD*%
%TA.AperFunction,Conductor*%
%ADD18C,0.250000*%
%TD*%
%TA.AperFunction,Conductor*%
%ADD19C,0.127000*%
%TD*%
G04 APERTURE END LIST*
D10*
%TO.P,J1,*%
%TO.N,GND*%
X97025000Y-66040000D03*
X101215000Y-66040000D03*
D11*
%TO.P,J1,1,DAT2*%
%TO.N,Net-(J1-DAT2)*%
X102720000Y-73275000D03*
%TO.P,J1,2,DAT3/CD*%
%TO.N,Net-(J1-DAT3{slash}CD)*%
X101620000Y-73275000D03*
%TO.P,J1,3,CMD*%
%TO.N,Net-(J1-CMD)*%
X100520000Y-73275000D03*
%TO.P,J1,4,VDD*%
%TO.N,VDD*%
X99420000Y-73275000D03*
%TO.P,J1,5,CLK*%
%TO.N,Net-(J1-CLK)*%
X98320000Y-73275000D03*
%TO.P,J1,6,VSS*%
%TO.N,GND*%
X97220000Y-73275000D03*
%TO.P,J1,7,DAT0*%
%TO.N,Net-(J1-DAT0)*%
X96120000Y-73275000D03*
%TO.P,J1,8,DAT1*%
%TO.N,Net-(J1-DAT1)*%
X95020000Y-73275000D03*
D12*
%TO.P,J1,9,SHIELD*%
%TO.N,GND*%
X104480000Y-70595000D03*
D13*
%TO.P,J1,MP*%
X93845000Y-67285000D03*
D14*
X93845000Y-70470000D03*
D15*
X104480000Y-69325000D03*
D13*
X104490000Y-66715000D03*
%TD*%
D16*
%TO.N,Net-(J1-DAT2)*%
X101981000Y-76581000D03*
%TO.N,Net-(J1-DAT3{slash}CD)*%
X102515544Y-75794370D03*
%TO.N,Net-(J1-CMD)*%
X100480235Y-70003166D03*
%TO.N,Net-(J1-CLK)*%
X99645982Y-70034053D03*
%TO.N,GND*%
X96901000Y-67437000D03*
X103759000Y-77216000D03*
X97556481Y-70367073D03*
X94615000Y-77216000D03*
X98933000Y-77216000D03*
X101219000Y-67437000D03*
%TO.N,Net-(J1-DAT0)*%
X101569852Y-75782148D03*
%TO.N,Net-(J1-DAT1)*%
X100736587Y-75844587D03*
%TO.N,VDD*%
X99441000Y-72136000D03*
%TD*%
D17*
%TO.N,Net-(J1-DAT2)*%
X103319479Y-75755000D02*
X103299000Y-75755000D01*
X103124000Y-75930000D02*
X103124000Y-76073000D01*
X103049000Y-75405000D02*
X103124000Y-75405000D01*
X103124000Y-74422000D02*
X103124000Y-74930000D01*
X102974000Y-75080000D02*
X102974000Y-75330000D01*
X102616000Y-76581000D02*
X101981000Y-76581000D01*
X103124000Y-75405000D02*
X103319479Y-75405000D01*
X103124000Y-76073000D02*
X102616000Y-76581000D01*
X102720000Y-74018000D02*
X103124000Y-74422000D01*
X102720000Y-73275000D02*
X102720000Y-74018000D01*
X102974000Y-75330000D02*
G75*
G03*
X103049000Y-75405000I75000J0D01*
G01*
X103049000Y-75005000D02*
G75*
G03*
X103124000Y-74930000I0J75000D01*
G01*
X103299000Y-75755000D02*
G75*
G03*
X103124000Y-75930000I0J-175000D01*
G01*
X103319479Y-75754979D02*
G75*
G03*
X103494479Y-75580000I21J174979D01*
G01*
X103494500Y-75580000D02*
G75*
G03*
X103319479Y-75405000I-175000J0D01*
G01*
X103049000Y-75005000D02*
G75*
G03*
X102974000Y-75080000I0J-75000D01*
G01*
%TO.N,Net-(J1-DAT3{slash}CD)*%
X101620000Y-73530000D02*
X101620000Y-73275000D01*
X101620000Y-73275000D02*
X101620000Y-74021000D01*
X99695000Y-74422000D02*
X99695000Y-74676000D01*
X102108000Y-74803000D02*
X102515544Y-75210544D01*
X101346000Y-74295000D02*
X99822000Y-74295000D01*
X99822000Y-74803000D02*
X102108000Y-74803000D01*
X102515544Y-75210544D02*
X102515544Y-75794370D01*
X101620000Y-74021000D02*
X101346000Y-74295000D01*
X99822000Y-74295000D02*
X99695000Y-74422000D01*
X99695000Y-74676000D02*
X99822000Y-74803000D01*
X101445000Y-73705000D02*
G75*
G03*
X101620000Y-73530000I0J175000D01*
G01*
%TO.N,Net-(J1-CMD)*%
X100695000Y-71230000D02*
X99837022Y-71230000D01*
X100695000Y-71580000D02*
X101202952Y-71580000D01*
X101202952Y-71230000D02*
X100695000Y-71230000D01*
X100520000Y-73275000D02*
X100520000Y-71755000D01*
X100520000Y-70880000D02*
X101202952Y-70880000D01*
X101202952Y-70530000D02*
X100695000Y-70530000D01*
X100520000Y-70042931D02*
X100480235Y-70003166D01*
X99837022Y-70880000D02*
X100520000Y-70880000D01*
X100520000Y-70355000D02*
X100520000Y-70042931D01*
X101202952Y-71579952D02*
G75*
G03*
X101377952Y-71405000I48J174952D01*
G01*
X101378000Y-71405000D02*
G75*
G03*
X101202952Y-71230000I-175000J0D01*
G01*
X99662000Y-71055000D02*
G75*
G03*
X99837022Y-71230000I175000J0D01*
G01*
X100520000Y-70355000D02*
G75*
G03*
X100695000Y-70530000I175000J0D01*
G01*
X100695000Y-71580000D02*
G75*
G03*
X100520000Y-71755000I0J-175000D01*
G01*
X99837022Y-70880022D02*
G75*
G03*
X99662022Y-71055000I-22J-174978D01*
G01*
X101202952Y-70879952D02*
G75*
G03*
X101377952Y-70705000I48J174952D01*
G01*
X101378000Y-70705000D02*
G75*
G03*
X101202952Y-70530000I-175000J0D01*
G01*
%TO.N,Net-(J1-CLK)*%
X98221415Y-69756585D02*
X98320000Y-69658000D01*
X98320000Y-69658000D02*
X98320000Y-69320000D01*
X97856599Y-69854017D02*
X97954031Y-69756585D01*
X99441000Y-68707000D02*
X99645982Y-68911982D01*
X97954031Y-69756585D02*
X98221415Y-69756585D01*
X98320000Y-73275000D02*
X98320000Y-70397692D01*
X98320000Y-69320000D02*
X98933000Y-68707000D01*
X98933000Y-68707000D02*
X99441000Y-68707000D01*
X98320000Y-70397692D02*
X98131481Y-70209173D01*
X98131481Y-70209173D02*
X98131481Y-70128900D01*
X99645982Y-68911982D02*
X99645982Y-70034053D01*
X98131481Y-70128900D02*
X97856599Y-69854017D01*
D18*
%TO.N,GND*%
X97556481Y-70367073D02*
X97220000Y-70703554D01*
X97220000Y-70703554D02*
X97220000Y-73275000D01*
D17*
%TO.N,Net-(J1-DAT0)*%
X98736626Y-74987626D02*
X98736626Y-74987625D01*
X101569852Y-75661852D02*
X101092000Y-75184000D01*
X98136626Y-74987625D02*
X98136626Y-74987626D01*
X98540252Y-74791251D02*
X98333000Y-74791251D01*
X101569852Y-75782148D02*
X101569852Y-75661852D01*
X97940252Y-75184000D02*
X97733000Y-75184000D01*
X96120000Y-74149000D02*
X96120000Y-73275000D01*
X101092000Y-75184000D02*
X98933000Y-75184000D01*
X97155000Y-75184000D02*
X96120000Y-74149000D01*
X97733000Y-75184000D02*
X97155000Y-75184000D01*
X98736600Y-74987626D02*
G75*
G03*
X98933000Y-75184000I196400J26D01*
G01*
X98736649Y-74987625D02*
G75*
G03*
X98540252Y-74791251I-196349J25D01*
G01*
X97940252Y-75183926D02*
G75*
G03*
X98136626Y-74987626I48J196326D01*
G01*
X98333000Y-74791226D02*
G75*
G03*
X98136626Y-74987625I0J-196374D01*
G01*
%TO.N,Net-(J1-DAT1)*%
X95020000Y-73275000D02*
X95020000Y-74319000D01*
X95020000Y-74319000D02*
X96545587Y-75844587D01*
X96545587Y-75844587D02*
X100736587Y-75844587D01*
D19*
X95020000Y-73525000D02*
X95020000Y-73275000D01*
D18*
%TO.N,VDD*%
X99441000Y-73254000D02*
X99420000Y-73275000D01*
X99441000Y-72136000D02*
X99441000Y-73254000D01*
%TD*%
%TA.AperFunction,Conductor*%
%TO.N,GND*%
G36*
X95049559Y-65450185D02*
G01*
X95095314Y-65502989D01*
X95105258Y-65572147D01*
X95098702Y-65597832D01*
X95076403Y-65657617D01*
X95076401Y-65657627D01*
X95070000Y-65717155D01*
X95070000Y-65790000D01*
X98980000Y-65790000D01*
X98980000Y-65717172D01*
X98979999Y-65717155D01*
X98973598Y-65657627D01*
X98973596Y-65657617D01*
X98951298Y-65597832D01*
X98946314Y-65528141D01*
X98979800Y-65466818D01*
X99041123Y-65433334D01*
X99067480Y-65430500D01*
X99172520Y-65430500D01*
X99239559Y-65450185D01*
X99285314Y-65502989D01*
X99295258Y-65572147D01*
X99288702Y-65597832D01*
X99266403Y-65657617D01*
X99266401Y-65657627D01*
X99260000Y-65717155D01*
X99260000Y-65790000D01*
X103170000Y-65790000D01*
X103170000Y-65717172D01*
X103169999Y-65717155D01*
X103163598Y-65657627D01*
X103163596Y-65657617D01*
X103141298Y-65597832D01*
X103136314Y-65528141D01*
X103169800Y-65466818D01*
X103231123Y-65433334D01*
X103257480Y-65430500D01*
X103682164Y-65430500D01*
X103749203Y-65450185D01*
X103794958Y-65502989D01*
X103804902Y-65572147D01*
X103775877Y-65635703D01*
X103730568Y-65667161D01*
X103730696Y-65667396D01*
X103728517Y-65668585D01*
X103725498Y-65670682D01*
X103722911Y-65671646D01*
X103722906Y-65671649D01*
X103607812Y-65757809D01*
X103607809Y-65757812D01*
X103521649Y-65872906D01*
X103521645Y-65872913D01*
X103471403Y-66007620D01*
X103471401Y-66007627D01*
X103465000Y-66067155D01*
X103465000Y-66465000D01*
X104616000Y-66465000D01*
X104683039Y-66484685D01*
X104728794Y-66537489D01*
X104740000Y-66589000D01*
X104740000Y-67815000D01*
X104879500Y-67815000D01*
X104946539Y-67834685D01*
X104992294Y-67887489D01*
X105003500Y-67939000D01*
X105003500Y-68161000D01*
X104983815Y-68228039D01*
X104931011Y-68273794D01*
X104879500Y-68285000D01*
X104730000Y-68285000D01*
X104730000Y-71485000D01*
X104879500Y-71485000D01*
X104946539Y-71504685D01*
X104992294Y-71557489D01*
X105003500Y-71609000D01*
X105003500Y-78209500D01*
X104983815Y-78276539D01*
X104931011Y-78322294D01*
X104879500Y-78333500D01*
X93621500Y-78333500D01*
X93554461Y-78313815D01*
X93508706Y-78261011D01*
X93497500Y-78209500D01*
X93497500Y-72289000D01*
X93517185Y-72221961D01*
X93569989Y-72176206D01*
X93587632Y-72172367D01*
X93595000Y-72165000D01*
X94095000Y-72165000D01*
X94377132Y-72165000D01*
X94444171Y-72184685D01*
X94489926Y-72237489D01*
X94499870Y-72306647D01*
X94470845Y-72370203D01*
X94451444Y-72388266D01*
X94412452Y-72417455D01*
X94326206Y-72532664D01*
X94326202Y-72532671D01*
X94275908Y-72667517D01*
X94269501Y-72727116D01*
X94269501Y-72727123D01*
X94269500Y-72727135D01*
X94269500Y-73822870D01*
X94269501Y-73822876D01*
X94275908Y-73882483D01*
X94326202Y-74017328D01*
X94326203Y-74017329D01*
X94326204Y-74017331D01*
X94410646Y-74130131D01*
X94417769Y-74139646D01*
X94415370Y-74141441D01*
X94441665Y-74189596D01*
X94444499Y-74215952D01*
X94444500Y-74277218D01*
X94443969Y-74285320D01*
X94439535Y-74318998D01*
X94444021Y-74353083D01*
X94444023Y-74353098D01*
X94444500Y-74356720D01*
X94458059Y-74459714D01*
X94459313Y-74469235D01*
X94459313Y-74469236D01*
X94501977Y-74572235D01*
X94517302Y-74609234D01*
X94587680Y-74700952D01*
X94587689Y-74700963D01*
X94609546Y-74729448D01*
X94609547Y-74729449D01*
X94609549Y-74729451D01*
X94633053Y-74747486D01*
X94636506Y-74750136D01*
X94642609Y-74755489D01*
X96109107Y-76221987D01*
X96114448Y-76228077D01*
X96135136Y-76255038D01*
X96135135Y-76255038D01*
X96165311Y-76278193D01*
X96165314Y-76278194D01*
X96165316Y-76278196D01*
X96165319Y-76278199D01*
X96255354Y-76347286D01*
X96343677Y-76383870D01*
X96395351Y-76405274D01*
X96507867Y-76420087D01*
X96507868Y-76420087D01*
X96509881Y-76420352D01*
X96509904Y-76420354D01*
X96545587Y-76425052D01*
X96545588Y-76425052D01*
X96555400Y-76423760D01*
X96579270Y-76420617D01*
X96587368Y-76420087D01*
X100128647Y-76420087D01*
X100195686Y-76439772D01*
X100216328Y-76456406D01*
X100234325Y-76474403D01*
X100387065Y-76570376D01*
X100449046Y-76592064D01*
X100557332Y-76629955D01*
X100557337Y-76629956D01*
X100736583Y-76650152D01*
X100736587Y-76650152D01*
X100736591Y-76650152D01*
X100915836Y-76629956D01*
X100915838Y-76629955D01*
X100915842Y-76629955D01*
X100915845Y-76629953D01*
X100915849Y-76629953D01*
X101024129Y-76592064D01*
X101093908Y-76588501D01*
X101154535Y-76623230D01*
X101186763Y-76685223D01*
X101188304Y-76695222D01*
X101195630Y-76760249D01*
X101195631Y-76760254D01*
X101255211Y-76930523D01*
X101274531Y-76961270D01*
X101351184Y-77083262D01*
X101478738Y-77210816D01*
X101631478Y-77306789D01*
X101801745Y-77366368D01*
X101801750Y-77366369D01*
X101980996Y-77386565D01*
X101981000Y-77386565D01*
X101981004Y-77386565D01*
X102160249Y-77366369D01*
X102160252Y-77366368D01*
X102160255Y-77366368D01*
X102330522Y-77306789D01*
X102483262Y-77210816D01*
X102499074Y-77195003D01*
X102560394Y-77161518D01*
X102602937Y-77159745D01*
X102616000Y-77161465D01*
X102651777Y-77156754D01*
X102651809Y-77156751D01*
X102653715Y-77156500D01*
X102653720Y-77156500D01*
X102766236Y-77141687D01*
X102906233Y-77083698D01*
X102906801Y-77083262D01*
X102996268Y-77014612D01*
X102996267Y-77014612D01*
X103004360Y-77008403D01*
X103004364Y-77008398D01*
X103026451Y-76991451D01*
X103047138Y-76964489D01*
X103052480Y-76958398D01*
X103501398Y-76509480D01*
X103507489Y-76504138D01*
X103534451Y-76483451D01*
X103541395Y-76474402D01*
X103551394Y-76461370D01*
X103551405Y-76461358D01*
X103594440Y-76405273D01*
X103626698Y-76363233D01*
X103661505Y-76279198D01*
X103705344Y-76224799D01*
X103707184Y-76223546D01*
X103709530Y-76221979D01*
X103797863Y-76162967D01*
X103902410Y-76058433D01*
X103984552Y-75935510D01*
X104041133Y-75798923D01*
X104069978Y-75653921D01*
X104069978Y-75653918D01*
X104069979Y-75653914D01*
X104069979Y-75631383D01*
X104070000Y-75631308D01*
X104069999Y-75506076D01*
X104065212Y-75482016D01*
X104041153Y-75361071D01*
X103984571Y-75224480D01*
X103902426Y-75101554D01*
X103797876Y-74997017D01*
X103797721Y-74996913D01*
X103754615Y-74968114D01*
X103709807Y-74914504D01*
X103699500Y-74865008D01*
X103699500Y-74463780D01*
X103700031Y-74455678D01*
X103704465Y-74421999D01*
X103703797Y-74416929D01*
X103699766Y-74386313D01*
X103699765Y-74386294D01*
X103699500Y-74384280D01*
X103684687Y-74271764D01*
X103626698Y-74131767D01*
X103594212Y-74089430D01*
X103557612Y-74041732D01*
X103556660Y-74040491D01*
X103556656Y-74040486D01*
X103542678Y-74022271D01*
X103534451Y-74011549D01*
X103534449Y-74011548D01*
X103534449Y-74011547D01*
X103511881Y-73994230D01*
X103470678Y-73937802D01*
X103464078Y-73882597D01*
X103464089Y-73882485D01*
X103464091Y-73882483D01*
X103470500Y-73822873D01*
X103470499Y-72727128D01*
X103464091Y-72667517D01*
X103413796Y-72532669D01*
X103413795Y-72532668D01*
X103413793Y-72532664D01*
X103327547Y-72417455D01*
X103327544Y-72417452D01*
X103212335Y-72331206D01*
X103212328Y-72331202D01*
X103077486Y-72280910D01*
X103077485Y-72280909D01*
X103077483Y-72280909D01*
X103017873Y-72274500D01*
X103017863Y-72274500D01*
X102422129Y-72274500D01*
X102422123Y-72274501D01*
X102362516Y-72280908D01*
X102219359Y-72334303D01*
X102218714Y-72332575D01*
X102161147Y-72345095D01*
X102121011Y-72333310D01*
X102120641Y-72334303D01*
X101977486Y-72280910D01*
X101977485Y-72280909D01*
X101977483Y-72280909D01*
X101917873Y-72274500D01*
X101917864Y-72274500D01*
X101661239Y-72274500D01*
X101594200Y-72254815D01*
X101548445Y-72202011D01*
X101538501Y-72132853D01*
X101567526Y-72069297D01*
X101592367Y-72047386D01*
X101681289Y-71987992D01*
X101681288Y-71987992D01*
X101681295Y-71987988D01*
X101785857Y-71883455D01*
X101868011Y-71760529D01*
X101924601Y-71623936D01*
X101953451Y-71478926D01*
X101953450Y-71478922D01*
X101953452Y-71478917D01*
X101953452Y-71456409D01*
X101953500Y-71456242D01*
X101953499Y-71405000D01*
X101953500Y-71405000D01*
X101953498Y-71331069D01*
X101924647Y-71186050D01*
X101889988Y-71102394D01*
X101882516Y-71032927D01*
X101889986Y-71007485D01*
X101924601Y-70923936D01*
X101940305Y-70845000D01*
X103620000Y-70845000D01*
X103620000Y-71032844D01*
X103626401Y-71092372D01*
X103626403Y-71092379D01*
X103676645Y-71227086D01*
X103676649Y-71227093D01*
X103762809Y-71342187D01*
X103762812Y-71342190D01*
X103877906Y-71428350D01*
X103877913Y-71428354D01*
X104012620Y-71478596D01*
X104012627Y-71478598D01*
X104072155Y-71484999D01*
X104072172Y-71485000D01*
X104230000Y-71485000D01*
X104230000Y-70845000D01*
X103620000Y-70845000D01*
X101940305Y-70845000D01*
X101953451Y-70778926D01*
X101953451Y-70778917D01*
X101953452Y-70778917D01*
X101953452Y-70756409D01*
X101953500Y-70756242D01*
X101953499Y-70705000D01*
X101953500Y-70705000D01*
X101953498Y-70631069D01*
X101924647Y-70486050D01*
X101868054Y-70349448D01*
X101868049Y-70349440D01*
X101785896Y-70226516D01*
X101753019Y-70193648D01*
X101681326Y-70121975D01*
X101558369Y-70039849D01*
X101421752Y-69983293D01*
X101421750Y-69983292D01*
X101369304Y-69972873D01*
X101307385Y-69940502D01*
X101272797Y-69879795D01*
X101270248Y-69865146D01*
X101265603Y-69823911D01*
X101206024Y-69653644D01*
X101156609Y-69575000D01*
X103455000Y-69575000D01*
X103455000Y-69912844D01*
X103461401Y-69972372D01*
X103461403Y-69972379D01*
X103511645Y-70107086D01*
X103511649Y-70107093D01*
X103595266Y-70218790D01*
X103619684Y-70284254D01*
X103620000Y-70293101D01*
X103620000Y-70345000D01*
X104230000Y-70345000D01*
X104230000Y-69575000D01*
X103455000Y-69575000D01*
X101156609Y-69575000D01*
X101110051Y-69500904D01*
X100982497Y-69373350D01*
X100902323Y-69322973D01*
X100829758Y-69277377D01*
X100659489Y-69217797D01*
X100659484Y-69217796D01*
X100480239Y-69197601D01*
X100480231Y-69197601D01*
X100359364Y-69211219D01*
X100290542Y-69199164D01*
X100239163Y-69151815D01*
X100221481Y-69087999D01*
X100221481Y-69075000D01*
X103455000Y-69075000D01*
X104230000Y-69075000D01*
X104230000Y-68285000D01*
X103907155Y-68285000D01*
X103847627Y-68291401D01*
X103847620Y-68291403D01*
X103712913Y-68341645D01*
X103712906Y-68341649D01*
X103597812Y-68427809D01*
X103597809Y-68427812D01*
X103511649Y-68542906D01*
X103511645Y-68542913D01*
X103461403Y-68677620D01*
X103461401Y-68677627D01*
X103455000Y-68737155D01*
X103455000Y-69075000D01*
X100221481Y-69075000D01*
X100221481Y-68953766D01*
X100222012Y-68945664D01*
X100225679Y-68917812D01*
X100226447Y-68911982D01*
X100222812Y-68884380D01*
X100222812Y-68884365D01*
X100221482Y-68874262D01*
X100206669Y-68761746D01*
X100148680Y-68621749D01*
X100098815Y-68556764D01*
X100079594Y-68531714D01*
X100079593Y-68531713D01*
X100077124Y-68528495D01*
X100056431Y-68501529D01*
X100044324Y-68492239D01*
X100029472Y-68480843D01*
X100023382Y-68475502D01*
X99877488Y-68329608D01*
X99872136Y-68323506D01*
X99869486Y-68320053D01*
X99851451Y-68296549D01*
X99851449Y-68296547D01*
X99851448Y-68296546D01*
X99822963Y-68274689D01*
X99822952Y-68274680D01*
X99747476Y-68216765D01*
X99738697Y-68207392D01*
X99591239Y-68146314D01*
X99591237Y-68146313D01*
X99591236Y-68146313D01*
X99537906Y-68139291D01*
X99475098Y-68131023D01*
X99475083Y-68131021D01*
X99448196Y-68127482D01*
X99441000Y-68126535D01*
X99440999Y-68126535D01*
X99440998Y-68126535D01*
X99421965Y-68129040D01*
X99407317Y-68130969D01*
X99399219Y-68131500D01*
X98974781Y-68131500D01*
X98966683Y-68130969D01*
X98937239Y-68127093D01*
X98933001Y-68126535D01*
X98933000Y-68126535D01*
X98928815Y-68127086D01*
X98899419Y-68130955D01*
X98899406Y-68130957D01*
X98895281Y-68131500D01*
X98895280Y-68131500D01*
X98849376Y-68137543D01*
X98782762Y-68146313D01*
X98755428Y-68157635D01*
X98741760Y-68163297D01*
X98700757Y-68180280D01*
X98642768Y-68204300D01*
X98642766Y-68204301D01*
X98553849Y-68272530D01*
X98553824Y-68272549D01*
X98522548Y-68296550D01*
X98501861Y-68323507D01*
X98496510Y-68329608D01*
X97942608Y-68883510D01*
X97936507Y-68888861D01*
X97909550Y-68909548D01*
X97885549Y-68940824D01*
X97885533Y-68940845D01*
X97842266Y-68997233D01*
X97817300Y-69029769D01*
X97756689Y-69176098D01*
X97712848Y-69230501D01*
X97689583Y-69243205D01*
X97663804Y-69253883D01*
X97663800Y-69253885D01*
X97574876Y-69322118D01*
X97574855Y-69322134D01*
X97543579Y-69346135D01*
X97522892Y-69373092D01*
X97517541Y-69379193D01*
X97479211Y-69417523D01*
X97473110Y-69422875D01*
X97446150Y-69443563D01*
X97353898Y-69563786D01*
X97353898Y-69563787D01*
X97295913Y-69703777D01*
X97295910Y-69703788D01*
X97284441Y-69790916D01*
X97277144Y-69846348D01*
X97276134Y-69854017D01*
X97291312Y-69969313D01*
X97295912Y-70004250D01*
X97295912Y-70004252D01*
X97316060Y-70052894D01*
X97353899Y-70144249D01*
X97424552Y-70236326D01*
X97424566Y-70236343D01*
X97446148Y-70264467D01*
X97446148Y-70264468D01*
X97473103Y-70285151D01*
X97479201Y-70290499D01*
X97569393Y-70380692D01*
X97596270Y-70420916D01*
X97603221Y-70437695D01*
X97628783Y-70499406D01*
X97699161Y-70591125D01*
X97699169Y-70591135D01*
X97718875Y-70616815D01*
X97744070Y-70681984D01*
X97744500Y-70692303D01*
X97744500Y-72165141D01*
X97724815Y-72232180D01*
X97672011Y-72277935D01*
X97602853Y-72287879D01*
X97578698Y-72281714D01*
X97577372Y-72281401D01*
X97517844Y-72275000D01*
X97470000Y-72275000D01*
X97470000Y-73401000D01*
X97450315Y-73468039D01*
X97397511Y-73513794D01*
X97346000Y-73525000D01*
X97094000Y-73525000D01*
X97026961Y-73505315D01*
X96981206Y-73452511D01*
X96970000Y-73401000D01*
X96970000Y-72275000D01*
X96922155Y-72275000D01*
X96862627Y-72281401D01*
X96862620Y-72281403D01*
X96719601Y-72334746D01*
X96718924Y-72332931D01*
X96661674Y-72345383D01*
X96620967Y-72333428D01*
X96620641Y-72334303D01*
X96477486Y-72280910D01*
X96477485Y-72280909D01*
X96477483Y-72280909D01*
X96417873Y-72274500D01*
X96417863Y-72274500D01*
X95822129Y-72274500D01*
X95822123Y-72274501D01*
X95762516Y-72280908D01*
X95619359Y-72334303D01*
X95618714Y-72332575D01*
X95561147Y-72345095D01*
X95521011Y-72333310D01*
X95520641Y-72334303D01*
X95377486Y-72280910D01*
X95377485Y-72280909D01*
X95377483Y-72280909D01*
X95317873Y-72274500D01*
X95317864Y-72274500D01*
X94762700Y-72274500D01*
X94695661Y-72254815D01*
X94649906Y-72202011D01*
X94639962Y-72132853D01*
X94668987Y-72069297D01*
X94688390Y-72051232D01*
X94727191Y-72022185D01*
X94813350Y-71907093D01*
X94813354Y-71907086D01*
X94863596Y-71772379D01*
X94863598Y-71772372D01*
X94869999Y-71712844D01*
X94870000Y-71712827D01*
X94870000Y-70720000D01*
X94095000Y-70720000D01*
X94095000Y-72165000D01*
X93595000Y-72165000D01*
X93595000Y-68775000D01*
X94095000Y-68775000D01*
X94095000Y-70220000D01*
X94870000Y-70220000D01*
X94870000Y-69227172D01*
X94869999Y-69227155D01*
X94863598Y-69167627D01*
X94863596Y-69167620D01*
X94813354Y-69032913D01*
X94813350Y-69032906D01*
X94727190Y-68917812D01*
X94727187Y-68917809D01*
X94612093Y-68831649D01*
X94612086Y-68831645D01*
X94477379Y-68781403D01*
X94477372Y-68781401D01*
X94417844Y-68775000D01*
X94095000Y-68775000D01*
X93595000Y-68775000D01*
X93595000Y-68774999D01*
X93583983Y-68763983D01*
X93554461Y-68755315D01*
X93508706Y-68702511D01*
X93497500Y-68651000D01*
X93497500Y-68509000D01*
X93517185Y-68441961D01*
X93569989Y-68396206D01*
X93587632Y-68392367D01*
X93595000Y-68385000D01*
X93595000Y-67535000D01*
X94095000Y-67535000D01*
X94095000Y-68385000D01*
X94417828Y-68385000D01*
X94417844Y-68384999D01*
X94477372Y-68378598D01*
X94477379Y-68378596D01*
X94612086Y-68328354D01*
X94612093Y-68328350D01*
X94727187Y-68242190D01*
X94727190Y-68242187D01*
X94813350Y-68127093D01*
X94813354Y-68127086D01*
X94863596Y-67992379D01*
X94863598Y-67992372D01*
X94869999Y-67932844D01*
X94870000Y-67932827D01*
X94870000Y-67535000D01*
X94095000Y-67535000D01*
X93595000Y-67535000D01*
X93595000Y-66185000D01*
X94095000Y-66185000D01*
X94095000Y-67035000D01*
X94870000Y-67035000D01*
X94870000Y-66965000D01*
X103465000Y-66965000D01*
X103465000Y-67362844D01*
X103471401Y-67422372D01*
X103471403Y-67422379D01*
X103521645Y-67557086D01*
X103521649Y-67557093D01*
X103607809Y-67672187D01*
X103607812Y-67672190D01*
X103722906Y-67758350D01*
X103722913Y-67758354D01*
X103857620Y-67808596D01*
X103857627Y-67808598D01*
X103917155Y-67814999D01*
X103917172Y-67815000D01*
X104240000Y-67815000D01*
X104240000Y-66965000D01*
X103465000Y-66965000D01*
X94870000Y-66965000D01*
X94870000Y-66637172D01*
X94869999Y-66637155D01*
X94863598Y-66577627D01*
X94863596Y-66577620D01*
X94813354Y-66442913D01*
X94813350Y-66442906D01*
X94727190Y-66327812D01*
X94727187Y-66327809D01*
X94676681Y-66290000D01*
X95070000Y-66290000D01*
X95070000Y-66362844D01*
X95076401Y-66422372D01*
X95076403Y-66422379D01*
X95126645Y-66557086D01*
X95126649Y-66557093D01*
X95212809Y-66672187D01*
X95212812Y-66672190D01*
X95327906Y-66758350D01*
X95327913Y-66758354D01*
X95462620Y-66808596D01*
X95462627Y-66808598D01*
X95522155Y-66814999D01*
X95522172Y-66815000D01*
X96775000Y-66815000D01*
X96775000Y-66290000D01*
X97275000Y-66290000D01*
X97275000Y-66815000D01*
X98527828Y-66815000D01*
X98527844Y-66814999D01*
X98587372Y-66808598D01*
X98587379Y-66808596D01*
X98722086Y-66758354D01*
X98722093Y-66758350D01*
X98837187Y-66672190D01*
X98837190Y-66672187D01*
X98923350Y-66557093D01*
X98923354Y-66557086D01*
X98973596Y-66422379D01*
X98973598Y-66422372D01*
X98979999Y-66362844D01*
X98980000Y-66362827D01*
X98980000Y-66290000D01*
X99260000Y-66290000D01*
X99260000Y-66362844D01*
X99266401Y-66422372D01*
X99266403Y-66422379D01*
X99316645Y-66557086D01*
X99316649Y-66557093D01*
X99402809Y-66672187D01*
X99402812Y-66672190D01*
X99517906Y-66758350D01*
X99517913Y-66758354D01*
X99652620Y-66808596D01*
X99652627Y-66808598D01*
X99712155Y-66814999D01*
X99712172Y-66815000D01*
X100965000Y-66815000D01*
X100965000Y-66290000D01*
X101465000Y-66290000D01*
X101465000Y-66815000D01*
X102717828Y-66815000D01*
X102717844Y-66814999D01*
X102777372Y-66808598D01*
X102777379Y-66808596D01*
X102912086Y-66758354D01*
X102912093Y-66758350D01*
X103027187Y-66672190D01*
X103027190Y-66672187D01*
X103113350Y-66557093D01*
X103113354Y-66557086D01*
X103163596Y-66422379D01*
X103163598Y-66422372D01*
X103169999Y-66362844D01*
X103170000Y-66362827D01*
X103170000Y-66290000D01*
X101465000Y-66290000D01*
X100965000Y-66290000D01*
X99260000Y-66290000D01*
X98980000Y-66290000D01*
X97275000Y-66290000D01*
X96775000Y-66290000D01*
X95070000Y-66290000D01*
X94676681Y-66290000D01*
X94612093Y-66241649D01*
X94612086Y-66241645D01*
X94477379Y-66191403D01*
X94477372Y-66191401D01*
X94417844Y-66185000D01*
X94095000Y-66185000D01*
X93595000Y-66185000D01*
X93583983Y-66173983D01*
X93554461Y-66165315D01*
X93508706Y-66112511D01*
X93497500Y-66061000D01*
X93497500Y-65554500D01*
X93517185Y-65487461D01*
X93569989Y-65441706D01*
X93621500Y-65430500D01*
X94982520Y-65430500D01*
X95049559Y-65450185D01*
G37*
%TD.AperFunction*%
%TD*%
M02*
